<svg width="298" height="236" xmlns="http://www.w3.org/2000/svg">
 <defs>
  <clipPath id="imagebot_12" clipPathUnits="userSpaceOnUse">
   <rect id="imagebot_28" stroke-linejoin="round" stroke="#ff0000" stroke-linecap="round" stroke-width="8.6" fill="none" x="-129.19" y="43.593" width="103.7" height="58.074"/>
  </clipPath>
 </defs>
 <g label="drawing#1" id="imagebot_24" display="inline">
  <path label="drawing#1" display="inline" transform="translate(-1 0) matrix(1 0 0 1 -8.679 -2.20085)" stroke="#1a1a1a" stroke-linecap="round" stroke-width="10" fill="none" d="M174.2252,46.5553A14.222,14.222 0 1 1 145.7752,46.5553A14.222,14.222 0 1 1 174.2252,46.5553z" id="imagebot_27"/>
  <path label="drawing#1" display="inline" transform="translate(1 0) matrix(1 0 0 1 -10.679 -2.20085)" fill-rule="evenodd" fill-opacity="0.75" stroke="#1a1a1a" stroke-width="10" d="M160.59,59L160,233.22" id="imagebot_26"/>
  <path label="drawing#1" display="inline" transform="translate(4.76837e-8 -0.00000273321) matrix(1 0 0 1 -11.679 -2.20085)" fill-rule="evenodd" fill-opacity="0.75" stroke="#1a1a1a" stroke-width="10.183" d="M30.017,230.65L291.167,231.06" id="imagebot_25"/>
  <title label="drawing#1" display="inline"/>
 </g>
 <g display="inline">
  <title display="inline"/>
  <path display="inline" id="imagebot_22" transform="rotate(18.8892 150.411 14.4436) matrix(1 0 0 1 -2.479 -9.00085)" fill-rule="evenodd" stroke="#1a1a1a" stroke-width="10" fill="#ff0000" d="M156.7,34.236L149.08,12.653"/>
  <path transform="rotate(5.5618 151.094 43.4338) matrix(1 0 0 1 0.00104339 -0.0215171)" display="inline" id="imagebot_21" stroke="#1a1a1a" stroke-linecap="round" stroke-width="10" fill="none" d="M 249.91449178698963 33.44934 L 52.27214644709946 53.46128"/>
 </g>
 <g display="inline">
  <title display="inline"/>
  <path display="inline" transform="translate(1 0) matrix(1 0 0 1 5.76 4.4522)" id="imagebot_20" stroke-linejoin="round" stroke="#1a1a1a" stroke-linecap="round" stroke-width="8.6" fill="none" d="M11.88,136.47594L44.47,40.76088L78.25,139.27011"/>
  <path display="inline" id="imagebot_19" transform="translate(-1 0) matrix(1 0 0 1 207.76 4.4522)" stroke-linejoin="round" stroke="#1a1a1a" stroke-linecap="round" stroke-width="8.6" fill="none" d="M11.88,136.47594L44.47,40.76088L78.25,139.27011"/>
 </g>
 <g display="inline">
  <title display="inline"/>
  <path display="inline" transform="translate(4.76837e-8 -0.00000273321) matrix(1 0 0 1 -2.64 5.45215)" id="imagebot_13" stroke-linejoin="round" stroke="#1a1a1a" stroke-linecap="round" stroke-width="8.6" fill="#1a1a1a" clip-path="url(#imagebot_12)" d="M90.551,127.6137C90.551,148.3657 71.821,165.2087 48.743,165.2087S6.94,148.3657 6.94,127.6137S25.665,90.0187 48.743,90.0187S90.551,106.8617 90.551,127.6137zM90.551,123.6137L6.94,123.6137"/>
  <path display="inline" id="imagebot_9" transform="translate(4.76837e-8 -0.00000273321) matrix(1 0 0 1 202.16 5.45215)" stroke-linejoin="round" stroke="#1a1a1a" stroke-linecap="round" stroke-width="8.6" fill="#1a1a1a" clip-path="url(#imagebot_12)" d="M90.551,127.6137C90.551,148.3657 71.821,165.2087 48.743,165.2087S6.94,148.3657 6.94,127.6137S25.665,90.0187 48.743,90.0187S90.551,106.8617 90.551,127.6137zM90.551,123.6137L6.94,123.6137"/>
  <path display="inline" fill="#000000" stroke="#000000" stroke-width="3" stroke-dasharray="null" stroke-linejoin="round" stroke-linecap="round" stroke-opacity="null" id="imagebot_8" d="M-15.56904,126.51515C-15.56904,97.31231 41.76097,73.65801 112.53875,73.65801C183.31653,73.65801 240.64655,97.31231 240.64655,126.51515C240.64655,155.71799 183.31653,179.3723 112.53875,179.3723C41.76097,179.3723 -15.56904,155.71799 -15.56904,126.51515z" transform="translate(1 0) matrix(0.33 0 0 0.33 13.5 110.75)"/>
  <path display="inline" fill="#000000" stroke="#000000" stroke-width="3" stroke-dasharray="null" stroke-linejoin="round" stroke-linecap="round" stroke-opacity="null" d="M-15.56904,126.51515C-15.56904,97.31231 41.76097,73.65801 112.53875,73.65801C183.31653,73.65801 240.64655,97.31231 240.64655,126.51515C240.64655,155.71799 183.31653,179.3723 112.53875,179.3723C41.76097,179.3723 -15.56904,155.71799 -15.56904,126.51515z" transform="translate(1 0) matrix(0.33 0 0 0.33 213.5 110.75)" id="imagebot_7"/>
 </g>
 <metadata>image/svg+xmlOpenclipartscales2009-04-05T13:17:50Scales like you'd use to weigh something.  Left side is down further than the right.https://openclipart.org/detail/24101/scales-by-scott_kirkwoodscott_kirkwoodbalancescalesilhouette</metadata>
</svg>