<svg width="297" height="238" xmlns="http://www.w3.org/2000/svg">
 <defs>
  <clipPath clipPathUnits="userSpaceOnUse" id="imagebot_4">
   <rect height="58.074" width="103.7" y="43.593" x="-129.19" fill="none" stroke-width="8.6" stroke-linecap="round" stroke="#ff0000" stroke-linejoin="round" id="imagebot_14"/>
  </clipPath>
 </defs>
 <g display="inline" id="imagebot_10" label="drawing#1">
  <path display="inline" label="drawing#1" id="imagebot_13" d="M174.2252,46.5553A14.222,14.222 0 1 1 145.7752,46.5553A14.222,14.222 0 1 1 174.2252,46.5553z" fill="none" stroke-width="10" stroke-linecap="round" stroke="#1a1a1a" transform="translate(1.33227e-14 2.00014) matrix(1 0 0 1 -9.679 -2.20085)"/>
  <path display="inline" label="drawing#1" id="imagebot_12" d="M160.59,59L160,233.22" stroke-width="10" stroke="#1a1a1a" fill-opacity="0.75" fill-rule="evenodd" transform="translate(1.33227e-14 2.00014) matrix(1 0 0 1 -9.679 -2.20085)"/>
  <path display="inline" label="drawing#1" id="imagebot_11" d="M30.017,230.65L291.167,231.06" stroke-width="10.183" stroke="#1a1a1a" fill-opacity="0.75" fill-rule="evenodd" transform="translate(1.33227e-14 2.00014) matrix(1 0 0 1 -11.679 -2.20085)"/>
  <title display="inline" label="drawing#1"/>
 </g>
 <g display="inline">
  <title display="inline"/>
  <path display="inline" d="M156.7,34.236L149.08,12.653" fill="#ff0000" stroke-width="10" stroke="#1a1a1a" fill-rule="evenodd" transform="rotate(80.6954 162.411 27.4438) matrix(1 0 0 1 9.521 3.99929)" id="imagebot_9"/>
  <path transform="rotate(25.8017 150.071 44.7898) matrix(1 0 0 1 0.178978 1.33448)" display="inline" d="M 254.47593687051864 33.44934 L 45.30873842427785 53.46128" fill="none" stroke-width="10" stroke-linecap="round" stroke="#1a1a1a" id="imagebot_8"/>
 </g>
 <g display="inline">
  <title display="inline"/>
  <path display="inline" d="M11.88,136.47594L44.47,40.76088L78.25,139.27011" fill="none" stroke-width="8.6" stroke-linecap="round" stroke="#1a1a1a" stroke-linejoin="round" id="imagebot_7" transform="translate(0 -1) matrix(1 0 0 1 6.76 -27.5477)"/>
  <path display="inline" d="M11.88,136.47594L44.47,40.76088L78.25,139.27011" fill="none" stroke-width="8.6" stroke-linecap="round" stroke="#1a1a1a" stroke-linejoin="round" transform="translate(0 1) matrix(1 0 0 1 206.76 40.4523)" id="imagebot_6"/>
 </g>
 <g display="inline">
  <title display="inline"/>
  <path display="inline" d="M90.551,127.6137C90.551,148.3657 71.821,165.2087 48.743,165.2087S6.94,148.3657 6.94,127.6137S25.665,90.0187 48.743,90.0187S90.551,106.8617 90.551,127.6137zM90.551,123.6137L6.94,123.6137" clip-path="url(#imagebot_4)" fill="#1a1a1a" stroke-width="8.6" stroke-linecap="round" stroke="#1a1a1a" stroke-linejoin="round" id="imagebot_5" transform="translate(1.33227e-14 2.00014) matrix(1 0 0 1 -2.64 5.45215)"/>
  <path display="inline" d="M90.551,127.6137C90.551,148.3657 71.821,165.2087 48.743,165.2087S6.94,148.3657 6.94,127.6137S25.665,90.0187 48.743,90.0187S90.551,106.8617 90.551,127.6137zM90.551,123.6137L6.94,123.6137" clip-path="url(#imagebot_4)" fill="#1a1a1a" stroke-width="8.6" stroke-linecap="round" stroke="#1a1a1a" stroke-linejoin="round" transform="translate(1.33227e-14 2.00014) matrix(1 0 0 1 202.16 5.45215)" id="imagebot_3"/>
  <path display="inline" transform="translate(0 -1) matrix(0.33 0 0 0.33 14.5 78.7501)" d="M-15.56904,126.51515C-15.56904,97.31231 41.76097,73.65801 112.53875,73.65801C183.31653,73.65801 240.64655,97.31231 240.64655,126.51515C240.64655,155.71799 183.31653,179.3723 112.53875,179.3723C41.76097,179.3723 -15.56904,155.71799 -15.56904,126.51515z" id="imagebot_2" stroke-opacity="null" stroke-linecap="round" stroke-linejoin="round" stroke-dasharray="null" stroke-width="3" stroke="#000000" fill="#000000"/>
  <path display="inline" id="imagebot_1" transform="translate(0 1) matrix(0.33 0 0 0.33 214.5 146.75)" d="M-15.56904,126.51515C-15.56904,97.31231 41.76097,73.65801 112.53875,73.65801C183.31653,73.65801 240.64655,97.31231 240.64655,126.51515C240.64655,155.71799 183.31653,179.3723 112.53875,179.3723C41.76097,179.3723 -15.56904,155.71799 -15.56904,126.51515z" stroke-opacity="null" stroke-linecap="round" stroke-linejoin="round" stroke-dasharray="null" stroke-width="3" stroke="#000000" fill="#000000"/>
 </g>
 <metadata>image/svg+xmlOpenclipartscales2009-04-05T13:17:50Scales like you'd use to weigh something.  Left side is down further than the right.https://openclipart.org/detail/24101/scales-by-scott_kirkwoodscott_kirkwoodbalancescalesilhouette</metadata>
</svg>